<svg id="visual" viewBox="0 0 900 600" width="900" height="600" xmlns="http://www.w3.org/2000/svg" xmlns:xlink="http://www.w3.org/1999/xlink" version="1.1"><rect x="0" y="0" width="900" height="600" fill="#000406"></rect><path d="M258 0L269.2 14.3C280.3 28.7 302.7 57.3 319.5 85.8C336.3 114.3 347.7 142.7 353.7 171.2C359.7 199.7 360.3 228.3 356.7 257C353 285.7 345 314.3 332 343C319 371.7 301 400.3 286.7 428.8C272.3 457.3 261.7 485.7 271.8 514.2C282 542.7 313 571.3 328.5 585.7L344 600L0 600L0 585.7C0 571.3 0 542.7 0 514.2C0 485.7 0 457.3 0 428.8C0 400.3 0 371.7 0 343C0 314.3 0 285.7 0 257C0 228.3 0 199.7 0 171.2C0 142.7 0 114.3 0 85.8C0 57.3 0 28.7 0 14.3L0 0Z" fill="#ec5449"></path><path d="M301 0L296.3 14.3C291.7 28.7 282.3 57.3 280.2 85.8C278 114.3 283 142.7 273 171.2C263 199.7 238 228.3 223 257C208 285.7 203 314.3 200.8 343C198.7 371.7 199.3 400.3 203.8 428.8C208.3 457.3 216.7 485.7 219.5 514.2C222.3 542.7 219.7 571.3 218.3 585.7L217 600L0 600L0 585.7C0 571.3 0 542.7 0 514.2C0 485.7 0 457.3 0 428.8C0 400.3 0 371.7 0 343C0 314.3 0 285.7 0 257C0 228.3 0 199.7 0 171.2C0 142.7 0 114.3 0 85.8C0 57.3 0 28.7 0 14.3L0 0Z" fill="#f1484e"></path><path d="M207 0L205.7 14.3C204.3 28.7 201.7 57.3 195 85.8C188.3 114.3 177.7 142.7 178.2 171.2C178.7 199.7 190.3 228.3 185 257C179.7 285.7 157.3 314.3 154.2 343C151 371.7 167 400.3 177.7 428.8C188.3 457.3 193.7 485.7 193.3 514.2C193 542.7 187 571.3 184 585.7L181 600L0 600L0 585.7C0 571.3 0 542.7 0 514.2C0 485.7 0 457.3 0 428.8C0 400.3 0 371.7 0 343C0 314.3 0 285.7 0 257C0 228.3 0 199.7 0 171.2C0 142.7 0 114.3 0 85.8C0 57.3 0 28.7 0 14.3L0 0Z" fill="#f63a55"></path><path d="M106 0L113.5 14.3C121 28.7 136 57.3 146 85.8C156 114.3 161 142.7 161.2 171.2C161.3 199.7 156.7 228.3 151 257C145.3 285.7 138.7 314.3 135.5 343C132.3 371.7 132.7 400.3 131.5 428.8C130.3 457.3 127.7 485.7 129 514.2C130.3 542.7 135.7 571.3 138.3 585.7L141 600L0 600L0 585.7C0 571.3 0 542.7 0 514.2C0 485.7 0 457.3 0 428.8C0 400.3 0 371.7 0 343C0 314.3 0 285.7 0 257C0 228.3 0 199.7 0 171.2C0 142.7 0 114.3 0 85.8C0 57.3 0 28.7 0 14.3L0 0Z" fill="#fa275d"></path><path d="M104 0L94.5 14.3C85 28.7 66 57.3 66.8 85.8C67.7 114.3 88.3 142.7 98.7 171.2C109 199.7 109 228.3 104.7 257C100.3 285.7 91.7 314.3 87.2 343C82.7 371.7 82.3 400.3 84.2 428.8C86 457.3 90 485.7 85.5 514.2C81 542.7 68 571.3 61.5 585.7L55 600L0 600L0 585.7C0 571.3 0 542.7 0 514.2C0 485.7 0 457.3 0 428.8C0 400.3 0 371.7 0 343C0 314.3 0 285.7 0 257C0 228.3 0 199.7 0 171.2C0 142.7 0 114.3 0 85.8C0 57.3 0 28.7 0 14.3L0 0Z" fill="#fe0066"></path></svg>